<svg width="28" height="24" viewBox="0 0 28 24" fill="none" xmlns="http://www.w3.org/2000/svg">
<path d="M27.7655 6.45175C27.6767 6.34698 27.566 6.26279 27.4411 6.20508C27.3163 6.14737 27.1803 6.11752 27.0426 6.11764H22.2469C22.0183 4.4251 21.1813 2.87251 19.8912 1.74762C18.6011 0.622729 16.9452 0.00182959 15.2305 0H13.3406C11.626 0.00182959 9.9701 0.622729 8.67996 1.74762C7.38981 2.87251 6.55287 4.4251 6.32425 6.11764H1.52855C1.3909 6.11752 1.25488 6.14737 1.13001 6.20508C1.00514 6.26279 0.894444 6.34698 0.805655 6.45175C0.713795 6.55613 0.646249 6.67944 0.607857 6.81287C0.569465 6.9463 0.561178 7.08653 0.583589 7.22352L3.10192 21.4823C3.23083 22.1914 3.60656 22.8325 4.16306 23.2929C4.71957 23.7534 5.42123 24.0037 6.14471 24H22.4264C23.1482 24.0002 23.847 23.7477 24.4007 23.2866C24.9543 22.8255 25.3276 22.1851 25.4551 21.4776L27.9876 7.22352C28.01 7.08653 28.0017 6.9463 27.9633 6.81287C27.9249 6.67944 27.8574 6.55613 27.7655 6.45175ZM13.3406 1.88235H15.2305C16.4445 1.88308 17.6199 2.30702 18.5528 3.08063C19.4857 3.85424 20.1174 4.92871 20.3381 6.11764H8.23308C8.45379 4.92871 9.08541 3.85424 10.0183 3.08063C10.9513 2.30702 12.1267 1.88308 13.3406 1.88235ZM23.5982 21.1482C23.5474 21.4207 23.4024 21.6669 23.1883 21.844C22.9743 22.021 22.7047 22.1179 22.4264 22.1176H6.14471C5.87078 22.1198 5.6046 22.0272 5.3917 21.8555C5.17881 21.6838 5.03245 21.4438 4.97767 21.1764L2.65306 7.99999H25.9181L23.5982 21.1482Z" fill="black"/>
</svg>
