<svg width="34" height="30" viewBox="0 0 34 30" fill="none" xmlns="http://www.w3.org/2000/svg">
<path d="M32.7266 8.52704C32.623 8.40481 32.4938 8.30659 32.3482 8.23926C32.2025 8.17193 32.0438 8.13711 31.8832 8.13724H26.2882C26.0215 6.16262 25.0451 4.35126 23.5399 3.03889C22.0347 1.72652 20.1029 1.00213 18.1025 1H15.8975C13.8971 1.00213 11.9653 1.72652 10.4601 3.03889C8.95494 4.35126 7.97851 6.16262 7.71179 8.13724H2.11681C1.95621 8.13711 1.79752 8.17193 1.65184 8.23926C1.50616 8.30659 1.37701 8.40481 1.27343 8.52704C1.16626 8.64881 1.08745 8.79268 1.04266 8.94835C0.997872 9.10401 0.988204 9.26761 1.01435 9.42744L3.9524 26.0627C4.10279 26.8899 4.54114 27.6379 5.1904 28.1751C5.83966 28.7123 6.65826 29.0044 7.50232 29H26.4977C27.3397 29.0003 28.155 28.7057 28.8009 28.1677C29.4469 27.6297 29.8823 26.8827 30.0311 26.0572L32.9857 9.42744C33.0118 9.26761 33.0021 9.10401 32.9573 8.94835C32.9125 8.79268 32.8337 8.64881 32.7266 8.52704ZM15.8975 3.19607H18.1025C19.5187 3.19693 20.89 3.69153 21.9784 4.59407C23.0669 5.49662 23.8037 6.75016 24.0612 8.13724H9.93875C10.1963 6.75016 10.9331 5.49662 12.0216 4.59407C13.11 3.69153 14.4813 3.19693 15.8975 3.19607ZM27.8647 25.6729C27.8055 25.9908 27.6363 26.278 27.3866 26.4846C27.1368 26.6912 26.8223 26.8042 26.4977 26.8039H7.50232C7.18274 26.8065 6.87219 26.6984 6.62382 26.4981C6.37544 26.2978 6.20469 26.0177 6.14078 25.7058L3.42873 10.3333H30.5713L27.8647 25.6729Z" fill="white" stroke="white" stroke-width="2"/>
</svg>
