<svg width="197" height="113" viewBox="0 0 197 113" fill="none" xmlns="http://www.w3.org/2000/svg">
<path d="M197 66.6935V84.5989C197 89.0659 193.379 92.6866 188.912 92.6866H180.258C178.694 81.9571 169.447 73.7073 158.286 73.7073C147.151 73.7073 137.904 81.9571 136.34 92.6866H62.8218C61.2583 81.9571 52.0109 73.7073 40.8765 73.7073C29.7422 73.7073 20.4948 81.9571 18.9313 92.6866H8.09342C3.6268 92.6866 0.00579412 89.0659 0.00579412 84.5989V66.6935H197ZM55.7095 23.4848H51.1022L49.4093 32.2259H53.8982C56.8892 32.2259 59.3691 30.1777 59.3691 26.7524C59.3691 24.6672 57.9924 23.4848 55.7095 23.4848ZM175.076 95.8949C175.076 105.143 167.555 112.664 158.307 112.664C149.033 112.664 141.511 105.142 141.511 95.8949C141.511 86.6208 149.033 79.099 158.307 79.099C167.554 79.099 175.076 86.6211 175.076 95.8949ZM166.692 95.8949C166.692 91.2583 162.917 87.5105 158.308 87.5105C153.671 87.5105 149.923 91.2583 149.923 95.8949C149.923 100.505 153.671 104.28 158.308 104.28C162.917 104.28 166.692 100.505 166.692 95.8949ZM57.6396 95.8949C57.6396 105.143 50.1449 112.664 40.8707 112.664C31.5966 112.664 24.1019 105.142 24.1019 95.8949C24.1019 86.6208 31.5969 79.099 40.8707 79.099C50.1445 79.099 57.6396 86.6211 57.6396 95.8949ZM49.2555 95.8949C49.2555 91.2583 45.508 87.5105 40.8714 87.5105C36.2342 87.5105 32.487 91.2583 32.487 95.8949C32.487 100.505 36.2345 104.28 40.8714 104.28C45.508 104.28 49.2555 100.505 49.2555 95.8949ZM196.994 62.223H0V8.08762C0 3.61231 3.63967 0 8.08762 0H130.323C134.798 0 138.411 3.61263 138.411 8.08762V14.1H154.452C157.283 14.1 160.006 15.2324 162.027 17.2272L193.813 48.6622C195.835 50.6844 196.994 53.434 196.994 56.3188V62.223ZM28.7079 31.3993L30.2034 23.4852H41.2268L42.0534 19.1148H26.0304L20.5965 47.0672H25.6358L27.842 35.7674H37.1329L37.9595 31.3996H28.7079V31.3993ZM58.1897 35.2955V35.2163C62.402 33.8393 64.5664 29.7061 64.5664 25.8859C64.5664 23.0136 63.1501 20.8466 60.7858 19.8223C59.6459 19.3118 58.266 19.1141 56.7708 19.1141H46.8899L41.4582 47.0663H46.5342L48.5431 36.6327H53.5824L57.1261 47.0663H62.5578L58.8193 36.7115C58.4636 35.6905 58.1897 35.2955 58.1897 35.2955ZM89.2014 19.1145H72.5098L67.0389 47.0669H84.3994L85.226 42.6965H72.9441L74.4 35.1774H83.8093L84.6756 30.807H75.2662L76.6826 23.4852H88.3355L89.2014 19.1145ZM111.754 19.1145H95.0618L89.5909 47.0669H106.952L107.778 42.6965H95.4961L96.952 35.1774H106.361L107.228 30.807H97.8179L99.2346 23.4852H110.887L111.754 19.1145ZM180.819 47.5295L155.935 23.7778C155.692 23.5624 155.368 23.4275 155.045 23.4275H149.195C148.494 23.4275 147.927 23.9938 147.927 24.6948V48.4465C147.927 49.1476 148.494 49.7135 149.195 49.7135H179.956C181.088 49.7132 181.654 48.3113 180.819 47.5295Z" fill="black"/>
</svg>
