<svg width="112" height="112" viewBox="0 0 112 112" fill="none" xmlns="http://www.w3.org/2000/svg">
<path d="M109.545 50.6607C108.78 49.6475 107.989 48.5993 107.863 47.7855C107.727 46.9193 108.164 45.647 108.588 44.4185C109.203 42.637 109.898 40.6175 109.273 38.6925C108.638 36.7308 106.867 35.4935 105.304 34.4015C104.255 33.6683 103.171 32.9105 102.788 32.1615C102.396 31.395 102.419 30.058 102.44 28.7665C102.471 26.873 102.506 24.7292 101.307 23.0807C100.104 21.4253 98.0455 20.797 96.2307 20.244C95.0005 19.8695 93.7265 19.4792 93.1263 18.879C92.5243 18.277 92.1357 17.003 91.7613 15.7727C91.2083 13.958 90.58 11.9 88.9228 10.696C87.276 9.49725 85.1305 9.5305 83.2387 9.56375C81.9473 9.58825 80.6085 9.6075 79.8438 9.2155C79.0947 8.834 78.337 7.749 77.6038 6.699C76.5135 5.13625 75.2763 3.367 73.3145 2.73C71.3877 2.10525 69.3648 2.8 67.5815 3.4125C66.353 3.836 65.0772 4.27175 64.2145 4.13875C63.4007 4.011 62.3525 3.22 61.3375 2.457C59.8115 1.3055 58.079 0 56 0C53.921 0 52.1885 1.3055 50.6607 2.457C49.6475 3.22175 48.5993 4.011 47.7855 4.13875C46.9227 4.277 45.6488 3.836 44.4185 3.4125C42.6353 2.79825 40.6157 2.1035 38.6925 2.7265C36.7308 3.3635 35.4935 5.13275 34.4015 6.6955C33.6683 7.74375 32.9105 8.82875 32.1615 9.21025C31.395 9.60225 30.0562 9.57775 28.7665 9.5585C26.873 9.52175 24.7292 9.49025 23.0807 10.6908C21.4253 11.8948 20.797 13.9528 20.244 15.7675C19.8695 16.9995 19.4792 18.2717 18.879 18.8737C18.277 19.4757 17.003 19.8643 15.771 20.2405C13.9563 20.7935 11.9 21.4218 10.6943 23.0773C9.4955 24.724 9.5305 26.8695 9.562 28.763C9.583 30.0563 9.604 31.3915 9.21375 32.1598C8.83225 32.907 7.74725 33.6647 6.699 34.398C5.13625 35.49 3.367 36.7272 2.72825 38.689C2.1035 40.6157 2.8 42.6353 3.41425 44.4185C3.83775 45.6488 4.277 46.9193 4.1405 47.7855C4.01275 48.5993 3.2235 49.6475 2.45875 50.6607C1.3055 52.1885 0 53.921 0 56C0 58.079 1.3055 59.8115 2.457 61.3392C3.22175 62.3525 4.011 63.4025 4.13875 64.2162L7.59675 63.672C7.33425 61.9937 6.2755 60.5903 5.25175 59.2323C4.39075 58.0895 3.5 56.9082 3.5 56C3.5 55.0918 4.39075 53.9105 5.25175 52.7677C6.2755 51.4097 7.3325 50.0062 7.59675 48.328C7.868 46.6025 7.28525 44.912 6.72175 43.2775C6.265 41.9527 5.7925 40.5807 6.05675 39.7705C6.3315 38.9253 7.53725 38.0835 8.70275 37.268C10.1027 36.2897 11.5518 35.2783 12.3305 33.7523C13.118 32.2088 13.09 30.429 13.0602 28.707C13.0375 27.2965 13.0148 25.8405 13.524 25.1388C14.0402 24.43 15.4385 24.003 16.793 23.59C18.4345 23.0877 20.1337 22.5697 21.3535 21.35C22.5732 20.1302 23.0912 18.4328 23.5917 16.7913C24.0047 15.4385 24.43 14.0385 25.1405 13.5223C25.8423 13.0113 27.3 13.034 28.7088 13.0585C30.4308 13.0865 32.2088 13.1163 33.754 12.3288C35.28 11.55 36.2915 10.1027 37.2715 8.701C38.0853 7.5355 38.9288 6.3315 39.774 6.05675C40.5825 5.79075 41.9545 6.26675 43.2793 6.72175C44.9155 7.28525 46.6043 7.86625 48.3298 7.59675C50.0063 7.33425 51.4115 6.2755 52.7695 5.25175C53.9105 4.39075 55.0918 3.5 56 3.5C56.9082 3.5 58.0895 4.39075 59.2323 5.25175C60.5903 6.2755 61.9937 7.3325 63.672 7.59675C65.394 7.86275 67.088 7.28525 68.7225 6.72175C70.049 6.265 71.4175 5.79075 72.2313 6.05675C73.0748 6.3315 73.9183 7.5355 74.7337 8.701C75.712 10.101 76.7253 11.55 78.2495 12.3288C79.793 13.1163 81.5798 13.0918 83.2948 13.0585C84.7053 13.0375 86.163 13.0113 86.8648 13.5223C87.5735 14.0385 87.9987 15.4368 88.4135 16.7913C88.914 18.4328 89.432 20.132 90.6517 21.3517C91.8698 22.5715 93.569 23.0895 95.2105 23.59C96.5615 24.003 97.9615 24.43 98.4777 25.1388C98.9887 25.8405 98.9642 27.2965 98.9415 28.707C98.9135 30.429 98.8855 32.2088 99.673 33.7523C100.452 35.2783 101.899 36.2897 103.299 37.268C104.465 38.0835 105.669 38.9252 105.945 39.7722C106.208 40.5825 105.737 41.9527 105.28 43.2775C104.716 44.912 104.135 46.6025 104.405 48.328C104.669 50.0045 105.728 51.4098 106.75 52.766C107.609 53.9105 108.5 55.0918 108.5 56C108.5 56.9082 107.609 58.0895 106.748 59.234C105.726 60.5902 104.669 61.9937 104.403 63.672L107.863 64.2162C107.989 63.4025 108.78 62.3542 109.545 61.3392C110.695 59.8115 112 58.079 112 56C112 53.921 110.695 52.1885 109.545 50.6607ZM95.207 88.4118C93.5655 88.9122 91.8662 89.4303 90.6482 90.65C89.4285 91.868 88.9105 93.5672 88.4082 95.2087C87.997 96.5615 87.57 97.9597 86.8595 98.476C86.1595 98.9853 84.693 98.9607 83.293 98.9398C81.571 98.9118 79.793 98.8838 78.246 99.6712C76.7218 100.45 75.7103 101.897 74.732 103.297C73.9165 104.463 73.0747 105.667 72.2277 105.943C71.4157 106.209 70.0472 105.737 68.7207 105.278C67.0863 104.716 65.394 104.144 63.6702 104.403C61.992 104.668 60.5885 105.726 59.2323 106.748C58.0895 107.609 56.9082 108.5 56 108.5C55.0918 108.5 53.9105 107.609 52.766 106.748C51.4098 105.726 50.0045 104.669 48.328 104.403C46.6077 104.144 44.912 104.716 43.2775 105.278C41.9527 105.735 40.5843 106.209 39.7705 105.943C38.9253 105.669 38.0817 104.463 37.268 103.297C36.288 101.896 35.2765 100.448 33.7523 99.6695C32.2088 98.882 30.4273 98.91 28.7088 98.9398C27.2983 98.9572 25.8405 98.987 25.1388 98.4743C24.43 97.958 24.003 96.5597 23.59 95.207C23.0877 93.5655 22.5697 91.8662 21.35 90.6482C20.1302 89.4285 18.4328 88.9105 16.7895 88.4082C15.4367 87.997 14.0368 87.57 13.5223 86.8595L10.6925 88.921C11.8965 90.5748 13.9545 91.203 15.7675 91.756C16.9995 92.1322 18.2735 92.5208 18.8755 93.1227C19.4775 93.7248 19.866 94.997 20.2423 96.229C20.7952 98.0437 21.4235 100.1 23.079 101.304C24.7257 102.506 26.8713 102.466 28.7665 102.436C30.0562 102.422 31.395 102.394 32.1615 102.785C32.9087 103.166 33.6665 104.251 34.3997 105.301C35.4917 106.864 36.729 108.633 38.6908 109.272C40.614 109.891 42.6353 109.202 44.4185 108.586C45.6488 108.164 46.9227 107.712 47.7855 107.861C48.5993 107.987 49.6475 108.778 50.6607 109.543C52.1885 110.695 53.921 112 56 112C58.079 112 59.8115 110.695 61.3392 109.545C62.3525 108.78 63.4025 107.989 64.2162 107.863C65.0703 107.713 66.353 108.164 67.5833 108.588C69.3682 109.203 71.3895 109.9 73.3092 109.273C75.271 108.638 76.5082 106.866 77.6003 105.303C78.3335 104.255 79.093 103.17 79.8385 102.788C80.605 102.394 81.9385 102.415 83.2335 102.44C85.1148 102.469 87.269 102.506 88.9193 101.307C90.573 100.104 91.2012 98.0473 91.7542 96.2325C92.1305 95.0023 92.519 93.7265 93.121 93.1263C93.723 92.5243 94.9952 92.1357 96.2255 91.7613C98.0403 91.2083 100.098 90.5782 101.302 88.9228L98.4725 86.8648C97.9597 87.5718 96.5597 87.997 95.207 88.4118Z" fill="black"/>
<path d="M14 80.5V77C14 76.0323 13.216 75.25 12.25 75.25H8.75V78.75H10.5V80.5C10.5 81.466 9.71425 82.25 8.75 82.25C7.78575 82.25 7 81.466 7 80.5V70C7 69.034 7.78575 68.25 8.75 68.25C9.71425 68.25 10.5 69.034 10.5 70V71.75H14V70C14 67.1055 11.6445 64.75 8.75 64.75C5.8555 64.75 3.5 67.1055 3.5 70V80.5C3.5 83.3945 5.8555 85.75 8.75 85.75C11.6445 85.75 14 83.3945 14 80.5ZM15.75 64.75V80.5C15.75 83.3945 18.1055 85.75 21 85.75C23.8945 85.75 26.25 83.3945 26.25 80.5V64.75H22.75V80.5C22.75 81.466 21.9643 82.25 21 82.25C20.0357 82.25 19.25 81.466 19.25 80.5V64.75H15.75ZM28 70V85.75H31.5V82.25H35V85.75H38.5V70C38.5 67.1055 36.1445 64.75 33.25 64.75C30.3555 64.75 28 67.1055 28 70ZM35 70V78.75H31.5V70C31.5 69.034 32.2857 68.25 33.25 68.25C34.2143 68.25 35 69.034 35 70ZM52.5 70V85.75H56V82.25H59.5V85.75H63V70C63 67.1055 60.6445 64.75 57.75 64.75C54.8555 64.75 52.5 67.1055 52.5 70ZM57.75 68.25C58.716 68.25 59.5 69.034 59.5 70V78.75H56V70C56 69.034 56.7858 68.25 57.75 68.25ZM40.25 66.5V75.243C40.25 75.2482 40.25 75.2517 40.25 75.2552V85.75H43.75V80.2393L47.6333 85.0938C47.9658 85.5085 48.468 85.75 49 85.75H50.75V82.25H49.84L45.5805 76.9248C48.5065 76.4645 50.75 73.927 50.75 70.875C50.75 67.4975 48.0025 64.75 44.625 64.75H42C41.034 64.75 40.25 65.5323 40.25 66.5ZM43.75 68.25H44.625C46.0723 68.25 47.25 69.4278 47.25 70.875C47.25 72.3222 46.0723 73.5 44.625 73.5H43.75V68.25ZM71.75 74.914L68.1257 65.8508C67.8125 65.0685 66.9795 64.6328 66.1693 64.7815C65.345 64.939 64.75 65.6618 64.75 66.5V85.75H68.25V75.586L71.8743 84.6492C72.1455 85.3247 72.7965 85.75 73.4983 85.75C73.6085 85.75 73.7205 85.7395 73.8307 85.7185C74.655 85.561 75.25 84.8382 75.25 84V64.75H71.75V74.914ZM84 68.25H87.5V64.75H77V68.25H80.5V85.75H84V68.25ZM98 68.25V64.75H91C90.0322 64.75 89.25 65.5323 89.25 66.5V84C89.25 84.9678 90.0322 85.75 91 85.75H98V82.25H92.75V77H98V73.5H92.75V68.25H98ZM99.75 66.5V84C99.75 84.9678 100.532 85.75 101.5 85.75H108.5V82.25H103.25V77H108.5V73.5H103.25V68.25H108.5V64.75H101.5C100.532 64.75 99.75 65.5323 99.75 66.5Z" fill="black"/>
<path d="M99.75 56C99.75 31.8763 80.1237 12.25 56 12.25C31.8763 12.25 12.25 31.8763 12.25 56C12.25 57.7622 12.369 59.6015 12.6018 61.467L16.0738 61.033C15.8585 59.311 15.75 57.617 15.75 56C15.75 33.8065 33.8065 15.75 56 15.75C78.1953 15.75 96.25 33.8065 96.25 56C96.25 57.617 96.1415 59.311 95.9245 61.033L99.3965 61.467C99.6328 59.6015 99.75 57.7622 99.75 56ZM82.7172 90.6342L80.577 87.8658C73.4737 93.3503 64.9775 96.25 56 96.25C47.0243 96.25 38.5263 93.3503 31.4248 87.8658L29.2845 90.6342C37.0055 96.5983 46.242 99.75 56 99.75C65.758 99.75 74.9962 96.5983 82.7172 90.6342Z" fill="black"/>
<path d="M38.5 36.75H35V40.25H36.75V57.75H40.25V38.5C40.25 37.534 39.466 36.75 38.5 36.75ZM48.125 36.75C44.7475 36.75 42 39.4975 42 42.875V51.625C42 55.0025 44.7475 57.75 48.125 57.75C51.5025 57.75 54.25 55.0025 54.25 51.625V42.875C54.25 39.4975 51.5025 36.75 48.125 36.75ZM50.75 51.625C50.75 53.0723 49.5723 54.25 48.125 54.25C46.6777 54.25 45.5 53.0723 45.5 51.625V42.875C45.5 41.4278 46.6777 40.25 48.125 40.25C49.5723 40.25 50.75 41.4278 50.75 42.875V51.625ZM62.125 36.75C58.7475 36.75 56 39.4975 56 42.875V51.625C56 55.0025 58.7475 57.75 62.125 57.75C65.5025 57.75 68.25 55.0025 68.25 51.625V42.875C68.25 39.4975 65.5025 36.75 62.125 36.75ZM64.75 51.625C64.75 53.0723 63.5723 54.25 62.125 54.25C60.6777 54.25 59.5 53.0723 59.5 51.625V42.875C59.5 41.4278 60.6777 40.25 62.125 40.25C63.5723 40.25 64.75 41.4278 64.75 42.875V51.625Z" fill="black"/>
<path d="M73.6819 55.2183L80.6819 41.2183L83.8126 42.7828L76.8126 56.7828L73.6819 55.2183Z" fill="black"/>
<path d="M75.25 43.75H71.75V47.25H75.25V43.75Z" fill="black"/>
<path d="M85.75 50.75H82.25V54.25H85.75V50.75Z" fill="black"/>
</svg>
