<svg width="23" height="31" viewBox="0 0 23 31" fill="none" xmlns="http://www.w3.org/2000/svg">
<path d="M11.365 0C8.35084 0 5.4601 1.19738 3.32874 3.32874C1.19738 5.4601 0 8.35084 0 11.365C0 22.978 10.3318 30.4893 10.7658 30.7992C10.9408 30.9238 11.1502 30.9908 11.365 30.9908C11.5798 30.9908 11.7893 30.9238 11.9643 30.7992C12.3982 30.4893 22.7301 22.978 22.7301 11.365C22.7301 8.35084 21.5327 5.4601 19.4013 3.32874C17.27 1.19738 14.3792 0 11.365 0ZM11.365 16.531C10.3433 16.531 9.34453 16.228 8.495 15.6603C7.64547 15.0927 6.98334 14.2859 6.59234 13.3419C6.20134 12.398 6.09904 11.3593 6.29837 10.3572C6.4977 9.35512 6.9897 8.43464 7.71217 7.71217C8.43464 6.9897 9.35512 6.4977 10.3572 6.29837C11.3593 6.09904 12.398 6.20134 13.3419 6.59234C14.2859 6.98334 15.0927 7.64547 15.6603 8.495C16.228 9.34453 16.531 10.3433 16.531 11.365C16.531 12.7351 15.9867 14.0491 15.0179 15.0179C14.0491 15.9867 12.7351 16.531 11.365 16.531Z" fill="white"/>
</svg>
