<svg width="43" height="31" viewBox="0 0 43 31" fill="none" xmlns="http://www.w3.org/2000/svg">
<path d="M37.843 -0.00878906H4.99592C2.23632 -0.00878906 0 2.22753 0 4.98638V25.3622C0 28.1211 2.23632 30.3575 4.99592 30.3575H37.843C40.6018 30.3575 42.8389 28.1211 42.8389 25.3622V4.98638C42.8389 2.22753 40.6019 -0.00878906 37.843 -0.00878906ZM40.4535 26.7081L39.5025 27.8343L26.185 16.9655L24.1226 18.9278C22.5941 20.3315 20.2449 20.3315 18.7163 18.9278L16.6539 16.9655L3.33641 27.8343L2.38542 26.7081L14.889 15.2858L2.30351 3.4579L3.04759 2.47202L21.4194 16.3926L39.7912 2.47202L40.5347 3.4579L27.95 15.2858L40.4535 26.7081Z" fill="white"/>
</svg>
