<svg width="50" height="33" viewBox="0 0 50 33" fill="none" xmlns="http://www.w3.org/2000/svg">
<path fill-rule="evenodd" clip-rule="evenodd" d="M0.215332 28.1997C0.215332 30.4088 2.00619 32.1997 4.21533 32.1997H45.8709C48.08 32.1997 49.8709 30.4088 49.8709 28.1997V4.78223C49.8709 2.57309 48.08 0.782227 45.8709 0.782227H4.21534C2.0062 0.782227 0.215332 2.57309 0.215332 4.78223V28.1997Z" fill="#1B3771"/>
<path fill-rule="evenodd" clip-rule="evenodd" d="M25.0831 26.5279C27.4791 28.7116 30.7008 30.0424 34.1891 30.0424C41.6972 30.0424 47.7676 23.9717 47.7676 16.4633C47.7676 8.98194 41.6975 2.88477 34.1891 2.88477C30.7008 2.88477 27.4793 4.21609 25.0831 6.39926C22.3405 8.9017 20.61 12.4696 20.61 16.4633C20.61 20.4578 22.3405 24.052 25.0831 26.5279Z" fill="#E9B040"/>
<path fill-rule="evenodd" clip-rule="evenodd" d="M45.9572 24.0257C45.9572 23.7861 46.1431 23.5996 46.4098 23.5996C46.6494 23.5996 46.8359 23.7861 46.8359 24.0257C46.8359 24.2653 46.6494 24.4783 46.4098 24.4783C46.3502 24.4788 46.2911 24.4674 46.236 24.4448C46.1809 24.4223 46.1308 24.389 46.0887 24.3468C46.0465 24.3047 46.0132 24.2546 45.9906 24.1995C45.9681 24.1443 45.9567 24.0853 45.9572 24.0257ZM46.4098 24.3715C46.5691 24.3715 46.7293 24.2122 46.7293 24.0254C46.7293 23.8386 46.5694 23.7058 46.4098 23.7058C46.2233 23.7058 46.0637 23.8389 46.0637 24.0254C46.0637 24.2119 46.2233 24.3715 46.4098 24.3715ZM46.3298 24.1987C46.3298 24.2208 46.3119 24.2387 46.2899 24.2387C46.2678 24.2387 46.2499 24.2208 46.2499 24.1987V23.9991C46.2499 23.9108 46.3215 23.8392 46.4098 23.8392C46.4364 23.8392 46.4898 23.8392 46.5163 23.8658C46.5429 23.8929 46.5694 23.9192 46.5694 23.9457C46.5694 23.9616 46.5671 23.9774 46.5624 23.9918C46.5476 24.0375 46.5109 24.1013 46.5297 24.1455L46.5412 24.1724C46.5546 24.2038 46.5315 24.2387 46.4973 24.2387C46.4768 24.2387 46.4585 24.2256 46.4521 24.2061L46.4204 24.1106C46.4141 24.0916 46.3963 24.0788 46.3763 24.0788C46.3506 24.0788 46.3298 24.0996 46.3298 24.1252V24.1987ZM46.3298 23.9591C46.3298 23.9812 46.3477 23.9991 46.3698 23.9991H46.4364C46.4628 23.9991 46.4629 23.9721 46.4629 23.9459C46.4629 23.9458 46.4629 23.9457 46.4629 23.9455C46.4629 23.9432 46.4616 23.9192 46.4364 23.9192H46.3698C46.3477 23.9192 46.3298 23.9371 46.3298 23.9591Z" fill="#E9B040"/>
<path fill-rule="evenodd" clip-rule="evenodd" d="M29.4762 15.0264C29.3817 14.1797 28.6306 13.5889 27.7786 13.5889H21.8763C21.3907 13.5889 21.0293 13.1385 21.1658 12.6724C21.2575 12.3592 21.5493 12.151 21.8756 12.151H27.7857C28.3029 12.151 28.6672 11.644 28.4714 11.1653C28.3582 10.8886 28.0856 10.7132 27.7866 10.7132H23.1106C22.5492 10.7132 22.1872 10.1233 22.4699 9.63828C22.6022 9.41135 22.847 9.27535 23.1096 9.27535H26.0688C26.6947 9.27535 27.0734 8.60174 26.678 8.1165C26.5311 7.93628 26.3081 7.83779 26.0756 7.83779H25.0252C24.4988 7.83779 24.2211 7.24799 24.5929 6.87543C24.8519 6.61596 24.8527 6.18853 24.5697 5.95558C22.2392 4.03743 19.2463 2.88574 15.9771 2.88574C8.46894 2.88574 2.39832 8.98292 2.39832 16.4643C2.39832 23.9724 8.46894 30.0433 15.9771 30.0433C19.4916 30.0433 22.6866 28.7123 25.083 26.5288C25.6573 25.9861 25.2607 25.0913 24.4706 25.0913H24.0916C23.8594 25.0913 23.6384 24.9881 23.4956 24.805C23.1198 24.323 23.4831 23.6537 24.0943 23.6537H27.0567C27.3201 23.6537 27.567 23.5209 27.7023 23.2948C27.9943 22.8067 27.6233 22.2156 27.0544 22.2156H22.3795C22.0796 22.2156 21.8047 22.043 21.6892 21.7662C21.4884 21.2848 21.8595 20.7781 22.3812 20.7781H27.3439C28.2357 20.7781 29.0422 20.2103 29.2366 19.3399C29.3432 18.861 29.4226 18.3813 29.4762 17.9024C29.5828 16.9467 29.5828 15.9821 29.4762 15.0264Z" fill="#CC2131"/>
<path fill-rule="evenodd" clip-rule="evenodd" d="M45.9572 19.6058C45.9572 19.3662 46.1431 19.1797 46.4098 19.1797C46.6494 19.1797 46.8359 19.3662 46.8359 19.6058C46.8359 19.8453 46.6494 20.0584 46.4098 20.0584C46.3502 20.0589 46.2911 20.0476 46.236 20.025C46.1808 20.0024 46.1307 19.9691 46.0886 19.927C46.0464 19.8848 46.0131 19.8347 45.9906 19.7796C45.968 19.7244 45.9566 19.6653 45.9572 19.6058ZM46.4098 19.9519C46.5692 19.9519 46.7293 19.7919 46.7293 19.6058C46.7293 19.4193 46.5694 19.2862 46.4098 19.2862C46.2233 19.2862 46.0637 19.4193 46.0637 19.6058C46.0637 19.7917 46.2233 19.9519 46.4098 19.9519ZM46.3298 19.7788C46.3298 19.8009 46.3119 19.8188 46.2899 19.8188C46.2678 19.8188 46.2499 19.8009 46.2499 19.7788V19.5792C46.2499 19.4909 46.3215 19.4193 46.4098 19.4193C46.4364 19.4193 46.4898 19.4193 46.5163 19.4458C46.5429 19.473 46.5694 19.4992 46.5694 19.5258C46.5694 19.5417 46.5671 19.5575 46.5624 19.5719C46.5476 19.6176 46.5109 19.6814 46.5297 19.7256L46.5412 19.7524C46.5546 19.7839 46.5315 19.8188 46.4973 19.8188C46.4768 19.8188 46.4585 19.8056 46.4521 19.7861L46.4204 19.6907C46.4141 19.6717 46.3963 19.6589 46.3763 19.6589C46.3506 19.6589 46.3298 19.6797 46.3298 19.7053V19.7788ZM46.3298 19.5395C46.3298 19.5616 46.3477 19.5795 46.3698 19.5795H46.4364C46.4628 19.5795 46.4629 19.5525 46.4629 19.5263C46.4629 19.5261 46.4629 19.526 46.4629 19.5259C46.4629 19.5236 46.4616 19.4995 46.4364 19.4995H46.3698C46.3477 19.4995 46.3298 19.5174 46.3298 19.5395Z" fill="white"/>
<path fill-rule="evenodd" clip-rule="evenodd" d="M20.5357 19.9913C20.4998 20.2271 20.3315 20.4247 20.0989 20.4772C19.8289 20.5382 19.6002 20.5642 19.3586 20.5642C18.6664 20.5642 18.2403 20.1382 18.2403 19.3391C18.2403 19.1798 18.2669 19.0196 18.2935 18.8337L18.3731 18.3011L18.4531 17.8479L18.9964 14.5887C19.0517 14.2571 19.3386 14.0141 19.6747 14.0141H20.0698C20.295 14.0141 20.4648 14.2187 20.4234 14.4401C20.3819 14.6614 20.5517 14.866 20.7769 14.866H20.7908C21.0179 14.866 21.1917 15.0681 21.1578 15.2926L21.0755 15.8379C21.0374 16.0905 20.8203 16.2773 20.5649 16.2773C20.3139 16.2773 20.0993 16.4577 20.0562 16.7049L19.7682 18.3552C19.7437 18.4961 19.7047 18.6369 19.7047 18.78C19.7047 19.073 19.8644 19.2061 20.2108 19.2061C20.4358 19.2061 20.6285 19.3816 20.5947 19.604L20.5357 19.9913ZM25.088 19.9873C25.0522 20.1943 24.905 20.3669 24.701 20.4174C24.3123 20.5136 23.9131 20.563 23.5119 20.5642C21.941 20.5642 21.0092 19.7121 21.0092 18.0612C21.0092 16.1445 22.1009 14.7066 23.5919 14.7066C24.7901 14.7066 25.562 15.5054 25.562 16.7567C25.562 16.7898 25.5617 16.8229 25.5609 16.8561C25.5439 17.6166 24.8362 18.1412 24.0756 18.1412H22.607C22.5186 18.1412 22.447 18.2128 22.447 18.3011C22.447 18.9665 22.8731 19.286 23.725 19.286C23.9066 19.286 24.0821 19.2736 24.2555 19.2478C24.7032 19.1811 25.1652 19.5413 25.088 19.9873ZM23.8852 16.9961C24.032 16.9961 24.151 16.877 24.151 16.7302C24.151 16.2775 23.8849 16.0114 23.4588 16.0114C23.2477 16.0114 23.0676 16.0785 22.9208 16.2083C22.5746 16.5142 22.9608 16.9962 23.4228 16.9962L23.8852 16.9961ZM9.31496 19.8519C9.25692 20.2014 8.95458 20.4577 8.60027 20.4577H8.27237C7.99835 20.4577 7.78941 20.2125 7.83292 19.9419C7.91889 19.4074 7.1562 19.2117 6.97425 19.7217L6.82664 20.1354C6.75768 20.3287 6.57463 20.4577 6.36941 20.4577H6.15116C5.90061 20.4577 5.6961 20.2573 5.69104 20.0068C5.67977 19.449 4.87177 19.3884 4.77734 19.9382L4.75552 20.0652C4.71657 20.292 4.51992 20.4577 4.28982 20.4577H4.10008C3.66918 20.4577 3.34131 20.0709 3.41188 19.6458L4.26231 14.5231C4.35441 13.9683 4.8343 13.5615 5.3967 13.5615H5.91297C6.25292 13.5615 6.53029 13.8337 6.53669 14.1736C6.5499 14.8751 7.532 15.024 7.7526 14.358L7.86132 14.0297C7.9539 13.7502 8.21519 13.5615 8.50963 13.5615H8.90612C9.66708 13.5615 10.2461 14.2446 10.1214 14.9952L9.31496 19.8519ZM12.7344 18.2485C12.7532 18.0885 12.6238 17.9281 12.4627 17.9281C11.6374 17.9281 11.2113 18.2477 11.2113 18.7803C11.2113 19.1527 11.4241 19.3663 11.7436 19.3663C12.374 19.3663 12.6563 18.9157 12.7344 18.2485ZM13.9515 20.3118C13.9374 20.396 13.8646 20.4577 13.7792 20.4577H12.7867C12.7118 20.4577 12.652 20.3952 12.6554 20.3203C12.6614 20.1892 12.4757 20.1193 12.3744 20.2029C12.0866 20.4404 11.7052 20.5642 11.1314 20.5642C10.4126 20.5642 9.8269 19.9251 9.8269 19.0196C9.8269 18.7537 9.88002 18.5141 9.93314 18.3011C10.1727 17.4221 11.0514 16.8895 12.3827 16.863C12.4537 16.863 12.5457 16.863 12.6447 16.8653C12.862 16.8704 13.0747 16.7346 13.0747 16.5171C13.0747 16.1445 12.782 16.038 12.0898 16.038C11.6879 16.038 11.2627 16.1091 10.9251 16.184C10.885 16.1929 10.846 16.2057 10.8083 16.2219L10.6932 16.2713C10.6837 16.2754 10.6734 16.2775 10.663 16.2775C10.6156 16.2775 10.5795 16.2349 10.5875 16.1881L10.7124 15.4541C10.7571 15.1917 10.9451 14.9739 11.2028 14.9072C11.6849 14.7826 12.0706 14.7332 12.4893 14.7332C13.7672 14.7332 14.4328 15.2923 14.4328 16.3841C14.4328 16.6499 14.4594 16.863 14.3529 17.4755L14.0602 19.4725L14.0071 19.8186L13.9713 20.0156C13.9597 20.0791 13.9539 20.1435 13.9539 20.208V20.283C13.9539 20.2926 13.9531 20.3023 13.9515 20.3118ZM32.1121 14.9197C32.2452 14.9197 32.3755 14.9315 32.5097 14.9572C32.9813 15.0473 33.493 14.8086 33.5678 14.3343L33.6046 14.1015C33.6348 13.9103 33.5438 13.7388 33.3649 13.6646C33.3404 13.6545 33.297 13.6386 33.2711 13.633L32.6975 13.5084C32.5111 13.4553 32.298 13.4287 32.0322 13.4287C31.3131 13.4287 30.887 13.4287 30.4347 13.7214C30.2102 13.8461 29.9389 14.0409 29.6212 14.3717C29.5813 14.4132 29.5212 14.4288 29.4666 14.4105C29.4224 14.3958 29.3739 14.4029 29.3358 14.4296L28.2014 15.2259C28.0785 15.3121 27.9118 15.2106 27.9321 15.0618C27.9462 14.9585 27.866 14.8665 27.7617 14.8665H27.0591C26.6725 14.8665 26.3434 15.148 26.2834 15.5299L25.6416 19.6153C25.5721 20.0579 25.9142 20.458 26.3622 20.458C26.716 20.458 27.0188 20.2041 27.0805 19.8557L27.4278 17.8936C27.48 17.5991 27.5688 17.3103 27.7202 17.0524C27.7591 16.986 27.7966 16.9269 27.826 16.8901C28.0919 16.544 28.3315 16.544 28.6245 16.544C28.6818 16.544 28.7269 16.5929 28.7223 16.6501C28.6989 16.9447 28.6776 17.277 28.6776 17.6091C28.6776 19.4462 29.7162 20.5913 31.3137 20.5913C31.6133 20.5913 31.8829 20.5613 32.2235 20.479C32.4507 20.424 32.6163 20.2324 32.6553 20.002C32.7392 19.5059 32.2069 19.1259 31.7044 19.1508C31.6715 19.1524 31.6389 19.1532 31.6064 19.1532C30.7542 19.1532 30.2482 18.5412 30.2482 17.4761C30.2482 15.9846 30.9936 14.9197 32.1121 14.9197ZM45.0393 13.5616C44.7547 13.5615 44.512 13.768 44.4665 14.0489C44.3815 14.5726 43.5356 14.7948 43.0061 14.763C42.9696 14.7608 42.9326 14.7597 42.8949 14.7597C42.315 14.7597 41.7648 15.0003 41.3351 15.4699C41.0901 15.7378 40.6924 15.8558 40.3811 15.669L40.2044 15.5631C40.0921 15.4957 40.0307 15.3678 40.0485 15.238C40.0753 15.0414 39.9225 14.8663 39.724 14.8663H39.1977C38.8117 14.8663 38.4827 15.1463 38.421 15.5274L37.761 19.6052C37.6887 20.0522 38.0338 20.4577 38.4867 20.4577C38.848 20.4577 39.1558 20.195 39.2126 19.8382L39.4771 18.1769C39.5527 17.7015 39.7719 17.266 40.0724 16.8898C40.3039 16.6009 40.5916 16.9076 40.5265 17.2721C40.4722 17.5762 40.4448 17.885 40.445 18.1949C40.445 19.6058 41.1906 20.5374 42.2555 20.5374C42.6558 20.5374 42.996 20.4324 43.3099 20.188C43.4083 20.1114 43.5719 20.1912 43.5542 20.3146C43.5434 20.3903 43.6021 20.458 43.6786 20.458H44.3457C44.691 20.458 44.9854 20.2075 45.0406 19.8666L45.9224 14.4307C45.9963 13.9751 45.6446 13.5617 45.183 13.5616L45.0393 13.5616ZM42.7621 19.1261C42.2561 19.1261 42.0165 18.78 42.0165 18.0347C42.0165 16.9432 42.4691 16.1445 43.1611 16.1445C43.6671 16.1445 43.9335 16.5437 43.9335 17.2628C43.9335 18.3542 43.4541 19.1261 42.7621 19.1261ZM35.9513 18.248C35.97 18.0882 35.8409 17.9281 35.68 17.9281C34.8544 17.9281 34.4284 18.2477 34.4284 18.7803C34.4284 19.1527 34.6414 19.3663 34.961 19.3663C35.5913 19.3663 35.8735 18.9154 35.9513 18.248ZM37.1438 20.3083C37.1438 20.3908 37.077 20.4577 36.9945 20.4577H36.004C35.9291 20.4577 35.8693 20.3952 35.8727 20.3203C35.8787 20.1892 35.693 20.1193 35.5918 20.2029C35.3039 20.4404 34.9224 20.5642 34.3484 20.5642C33.6299 20.5642 32.9908 19.9517 32.9908 19.0196C33.0174 17.6885 34.0023 16.863 35.5998 16.863C35.6708 16.863 35.7629 16.863 35.8619 16.8653C36.0794 16.8704 36.2923 16.7347 36.2923 16.5171C36.2923 16.1445 35.9993 16.038 35.3068 16.038C34.8807 16.038 34.4018 16.1179 34.0823 16.1976L33.8792 16.2738C33.8726 16.2763 33.8656 16.2775 33.8586 16.2775C33.8224 16.2775 33.7948 16.2449 33.8009 16.2092L33.9294 15.4541C33.9741 15.1917 34.1621 14.9739 34.4198 14.9073C34.9021 14.7826 35.2876 14.7332 35.7063 14.7332C36.9842 14.7332 37.6499 15.2923 37.6499 16.3841C37.6499 16.6499 37.6764 16.863 37.5699 17.4755L37.2775 19.4725L37.2241 19.8186L37.171 20.111L37.1454 20.2868C37.1444 20.2939 37.1438 20.3011 37.1438 20.3083ZM16.989 16.0645C17.1292 16.0645 17.2938 16.0706 17.4741 16.0828C17.8284 16.1068 18.1526 15.867 18.2098 15.5165C18.2701 15.147 18.0114 14.7996 17.6383 14.7677C17.3972 14.7471 17.1656 14.7332 16.9893 14.7332C15.3649 14.7332 14.8061 15.6119 14.8061 16.6502C14.8061 17.3156 15.1253 17.8216 15.8975 18.1677C16.5098 18.4607 16.6163 18.5144 16.6163 18.7537C16.6163 19.0998 16.2968 19.3129 15.7111 19.3129C15.4852 19.3129 15.2667 19.2904 15.0398 19.2494C14.7021 19.1884 14.3681 19.4055 14.3256 19.7459L14.2497 20.3533C14.2481 20.3663 14.2582 20.3777 14.2713 20.3777C14.2728 20.3777 14.2742 20.3779 14.2756 20.3782L14.5396 20.4311C14.5649 20.4396 14.5955 20.448 14.6306 20.4555C14.8153 20.4953 15.006 20.5002 15.1941 20.5165C15.4342 20.5374 15.6277 20.5374 15.7642 20.5374C17.3885 20.5374 18.0807 19.9254 18.0807 18.6738C18.0807 17.9019 17.708 17.4492 16.9624 17.1297C16.3502 16.8367 16.2702 16.8101 16.2702 16.5437C16.2702 16.2775 16.5363 16.0645 16.989 16.0645Z" fill="#1B3771"/>
<path fill-rule="evenodd" clip-rule="evenodd" d="M33.7536 13.2354C33.9369 13.3116 34.0332 13.489 34.0017 13.685L33.9668 13.9016C33.8918 14.3672 33.3894 14.6017 32.927 14.5091C32.7863 14.481 32.6503 14.468 32.511 14.468C31.393 14.468 30.6211 15.5332 30.6211 17.0507C30.6211 18.0893 31.1537 18.7279 32.005 18.7279C32.0426 18.7279 32.0805 18.7268 32.1188 18.7246C32.6148 18.6962 33.1399 19.0717 33.057 19.5617C33.0168 19.7994 32.8401 19.9935 32.604 20.042C32.2705 20.1104 32.0002 20.1394 31.6863 20.1394C30.1151 20.1394 29.1302 19.0208 29.1302 17.1838C29.1302 14.7076 30.4878 13.0039 32.4313 13.0039C32.6978 13.0039 32.9108 13.0305 33.0973 13.057L33.6787 13.2087C33.6991 13.214 33.7342 13.2273 33.7536 13.2354ZM29.3496 14.388C29.3454 14.388 29.3413 14.3871 29.3375 14.3853C29.286 14.3615 29.2348 14.3615 29.1833 14.3615C28.8684 14.3615 28.6453 14.4651 28.4008 14.7252C28.2886 14.8446 28.0655 14.7536 28.0907 14.5918C28.1053 14.4987 28.0333 14.4146 27.9391 14.4146H27.3348C27.0044 14.4146 26.7232 14.6552 26.6721 14.9817L26.0125 19.1977C25.9438 19.6363 26.2829 20.0326 26.7269 20.0326C27.0835 20.0326 27.3866 19.7726 27.4421 19.4204C27.898 16.527 28.0569 16.0121 28.7309 16.0121C28.7929 16.0121 28.8461 15.9683 28.8588 15.9077C28.9837 15.3124 29.1347 14.8469 29.373 14.4285C29.3833 14.4105 29.3703 14.3879 29.3496 14.388ZM20.9035 19.5988C20.8704 19.816 20.7194 20.0007 20.5058 20.0523C20.2542 20.1132 20.0259 20.1391 19.7844 20.1391C19.0387 20.1391 18.613 19.7131 18.613 18.914C18.613 18.7547 18.6395 18.5945 18.6661 18.4086L18.7458 17.8492L18.8257 17.4231L19.3658 14.1836C19.4229 13.8407 19.7196 13.5893 20.0673 13.5893H20.5089C20.7269 13.5893 20.8908 13.788 20.8494 14.002L20.8418 14.0415C20.8043 14.235 20.9526 14.4146 21.1496 14.4146C21.3419 14.4146 21.4888 14.5859 21.4596 14.7759L21.3594 15.4273C21.3265 15.6412 21.1424 15.7991 20.9261 15.7991C20.7127 15.7991 20.5303 15.9527 20.4941 16.1629L20.1942 17.9019C20.1696 18.0441 20.1476 18.1873 20.1322 18.3307C20.1313 18.3394 20.1308 18.3476 20.1308 18.3552C20.1308 18.6482 20.2904 18.7813 20.6368 18.7813C20.8288 18.7813 21.0043 18.9377 20.9753 19.1276L20.9035 19.5988ZM15.1784 16.1986C15.1784 16.8905 15.5245 17.3965 16.2967 17.7426C16.909 18.0356 16.9889 18.1156 16.9889 18.3817C16.9889 18.7279 16.7228 18.8878 16.1368 18.8878C15.9119 18.8878 15.6944 18.8655 15.4687 18.821C15.129 18.7539 14.7814 18.9579 14.7256 19.2996L14.6309 19.8799C14.6247 19.918 14.6541 19.9527 14.6927 19.9527C14.6969 19.9527 14.701 19.9531 14.7051 19.9539L14.9654 20.0061C15.0862 20.0427 15.2118 20.0606 15.3381 20.0592C15.6842 20.0857 15.9772 20.1123 16.1634 20.1123C17.7077 20.1123 18.4265 19.5269 18.4265 18.2487C18.4265 17.4768 18.1338 17.0241 17.3882 16.6775C16.7756 16.4116 16.6959 16.3316 16.6959 16.092C16.6959 15.7725 16.9355 15.6129 17.4147 15.6129C17.5396 15.6129 17.6837 15.6225 17.8369 15.6377C18.195 15.6733 18.526 15.4351 18.584 15.08C18.6436 14.7147 18.3914 14.3718 18.0226 14.3408C17.7889 14.3212 17.5592 14.3081 17.3882 14.3081C15.7376 14.3081 15.1784 15.1602 15.1784 16.1986ZM45.4141 19.4409C45.3588 19.782 45.0643 20.0326 44.7188 20.0326H44.0579C43.9784 20.0326 43.9172 19.9622 43.9284 19.8834C43.9464 19.7568 43.782 19.674 43.6792 19.75C43.3663 19.9812 43.0272 20.0854 42.6284 20.0854C41.5638 20.0854 40.8451 19.1805 40.8451 17.7695C40.8451 15.9056 41.9365 14.3347 43.241 14.3347C43.3136 14.3347 43.3838 14.3383 43.4518 14.3458C43.9981 14.4058 44.7987 14.2022 44.8867 13.6597C44.9356 13.3581 45.1961 13.1364 45.5017 13.1364H45.5867C46.0321 13.1364 46.3715 13.5353 46.3003 13.975L45.4141 19.4409ZM43.1345 18.701C43.827 18.701 44.3059 17.9291 44.3059 16.8111C44.3059 16.1186 44.04 15.7194 43.534 15.7194C42.8686 15.7194 42.3888 16.4913 42.3888 17.6096C42.3888 18.3286 42.6284 18.701 43.1345 18.701ZM25.4076 19.5612C25.3716 19.769 25.2232 19.9419 25.0186 19.9931C24.6301 20.0903 24.247 20.1391 23.8314 20.1391C22.1806 20.1391 21.3287 19.2602 21.3287 17.6361C21.3287 15.6928 22.4204 14.2815 23.9114 14.2815C25.1096 14.2815 25.8815 15.0803 25.8815 16.3316C25.8815 17.1397 25.1347 17.7161 24.3267 17.7161H22.9566C22.8591 17.7161 22.7666 17.7785 22.7666 17.876C22.7666 18.5151 23.1926 18.8609 24.0713 18.8609C24.2417 18.8609 24.4091 18.8488 24.5765 18.8237C25.0236 18.7564 25.4849 19.1158 25.4076 19.5612ZM24.2312 16.571C24.3929 16.571 24.5239 16.4399 24.5239 16.2782C24.5239 15.8256 24.2841 15.5595 23.8317 15.5595C23.6264 15.5595 23.4428 15.6363 23.2912 15.78C22.9558 16.0977 23.3336 16.571 23.7956 16.571H24.2312ZM9.68785 19.4268C9.62982 19.7763 9.32747 20.0326 8.97314 20.0326H8.64538C8.3713 20.0326 8.16231 19.7873 8.20581 19.5167C8.29178 18.982 7.52891 18.7864 7.34692 19.2964L7.1993 19.7102C7.13032 19.9035 6.94722 20.0326 6.74195 20.0326H6.52368C6.27319 20.0326 6.06873 19.8322 6.06367 19.5818C6.0524 19.0242 5.24458 18.9636 5.15019 19.5132L5.12839 19.6402C5.08946 19.8669 4.89286 20.0326 4.66281 20.0326H4.49511C4.08043 20.0326 3.76492 19.6604 3.83283 19.2513L4.68834 14.098C4.78044 13.5432 5.26031 13.1364 5.82269 13.1364H6.33897C6.67893 13.1364 6.9563 13.4086 6.96268 13.7485C6.97584 14.45 7.9579 14.599 8.17854 13.933L8.28732 13.6046C8.37991 13.3251 8.6412 13.1364 8.93563 13.1364H9.31185C10.0555 13.1364 10.6213 13.8039 10.4995 14.5375L9.68785 19.4268ZM13.1983 17.8752C13.2346 17.6795 13.0877 17.503 12.8887 17.503C12.0634 17.503 11.6374 17.796 11.6374 18.3552C11.6374 18.7013 11.8501 18.9412 12.1697 18.9412C12.6927 18.9412 13.0798 18.514 13.1983 17.8752ZM14.326 19.8721C14.3109 19.9647 14.2309 20.0326 14.1371 20.0326H13.2265C13.1439 20.0326 13.0781 19.9637 13.0819 19.8812C13.0882 19.7422 12.9014 19.6651 12.7907 19.7494C12.4679 19.9951 12.0713 20.112 11.5574 20.112C10.7587 20.112 10.2261 19.5 10.2261 18.5945C10.2261 17.2369 11.1582 16.4379 12.8088 16.4379C12.8784 16.4379 12.9581 16.4379 13.0435 16.4401C13.2481 16.4453 13.4476 16.3232 13.4476 16.1186C13.4476 15.7459 13.208 15.6126 12.5158 15.6126C12.0897 15.6126 11.6105 15.6657 11.291 15.7722L11.0779 15.8253C11.0138 15.8381 10.9567 15.7826 10.9676 15.7181L11.0935 14.9787C11.1329 14.7476 11.3011 14.5578 11.5283 14.5002C12.0735 14.3618 12.4761 14.3075 12.915 14.3075C14.1929 14.3075 14.8586 14.8667 14.8586 15.9319C14.8586 16.2248 14.8317 16.4376 14.7252 17.0501L14.4325 19.0471L14.3794 19.3932L14.3526 19.6857L14.326 19.8721ZM36.4139 17.875C36.4517 17.6795 36.3048 17.503 36.1058 17.503C35.2802 17.503 34.8541 17.796 34.8541 18.3552C34.8541 18.7013 35.0672 18.9412 35.3867 18.9412C35.8869 18.9412 36.2902 18.5139 36.4139 17.875ZM37.5168 20.0326H36.4439C36.3613 20.0326 36.2954 19.9637 36.2991 19.8811C36.3054 19.742 36.1176 19.664 36.0062 19.7475C35.6768 19.9945 35.27 20.112 34.7742 20.112C33.9757 20.112 33.4166 19.5 33.4166 18.5945C33.4166 17.2369 34.3752 16.4379 36.0255 16.4379C36.0949 16.4379 36.1746 16.4379 36.2599 16.4401C36.4646 16.4453 36.6643 16.3233 36.6643 16.1186C36.6643 15.7459 36.4247 15.6126 35.7322 15.6126C35.3062 15.6126 34.8273 15.6657 34.5077 15.7722L34.2947 15.8253C34.2305 15.8381 34.1734 15.7826 34.1844 15.7181L34.3103 14.9787C34.3496 14.7476 34.5178 14.5578 34.745 14.5001C35.2901 14.3618 35.6929 14.3075 36.1318 14.3075C37.4097 14.3075 38.0753 14.8667 38.0753 15.9319C38.0753 16.2248 38.0488 16.4376 37.9423 17.0501L37.6493 19.0471L37.5961 19.3932L37.5428 19.6857L37.5162 19.8721V20.032C37.5162 20.0324 37.5164 20.0326 37.5168 20.0326ZM41.4681 14.388C41.4614 14.388 41.455 14.3852 41.4495 14.3814C41.4208 14.3615 41.3727 14.3615 41.324 14.3615C41.0077 14.3615 40.7726 14.466 40.519 14.7286C40.4052 14.8464 40.1796 14.7537 40.2048 14.5919C40.2194 14.4987 40.1474 14.4146 40.0531 14.4146H39.4627C39.1393 14.4146 38.8636 14.6494 38.8122 14.9687L38.1327 19.1844C38.061 19.6293 38.4045 20.0326 38.8551 20.0326C39.218 20.0326 39.5258 19.7662 39.5801 19.4073C40.0156 16.5254 40.1972 16.0121 40.8451 16.0121C40.907 16.0121 40.9602 15.9683 40.9732 15.9077C41.1007 15.311 41.2734 14.8447 41.4909 14.4255C41.4998 14.4084 41.4874 14.3879 41.4681 14.388Z" fill="white"/>
</svg>
