<svg width="30" height="31" viewBox="0 0 30 31" fill="none" xmlns="http://www.w3.org/2000/svg">
<path d="M0.00133881 7.84705C0.00133881 9.1029 0.461889 10.4833 1.04695 11.948C1.63201 13.4127 2.38576 14.7931 2.97215 15.8387C4.56266 18.6008 6.61237 21.3201 8.95528 23.5787C11.2982 25.8374 14.0602 27.7212 17.1555 28.8512C18.9548 29.5621 20.7542 30.3574 22.7624 30.3574C23.7665 30.3574 25.1897 29.9812 26.4856 29.4363C27.7414 28.8927 28.87 28.0559 29.2891 27.0518C29.4564 26.6755 29.6653 26.1735 29.7911 25.587C29.917 25.0435 30 24.4985 30 24.1223C30 23.9135 30 23.7033 29.9585 23.6617C29.8326 23.41 29.5394 23.2012 29.2047 22.9923C28.451 22.6161 28.3265 22.4902 27.1965 21.8208C26.0251 21.1514 24.8121 20.3976 23.7652 19.854C23.2631 19.5608 22.9284 19.4349 22.8026 19.4349C22.1332 19.4349 21.2964 20.3561 20.5855 21.3602C19.8318 22.3644 18.995 23.2855 18.4099 23.2855C18.1167 23.2855 17.8235 23.1597 17.4888 22.9508C17.1541 22.7419 16.8194 22.5746 16.6106 22.4487C12.9289 20.3561 10.4601 17.8885 8.36889 14.2482C8.11719 13.8291 7.53213 12.9508 7.53213 12.4902C7.53213 11.9467 8.28588 11.3187 9.03829 10.6493C9.7492 10.0214 10.5029 9.26892 10.5029 8.34778C10.5029 8.22193 10.4186 7.84571 10.2512 7.30213C9.87504 6.21363 9.37299 4.95911 8.95395 3.74609C8.74509 3.15967 8.57774 2.74194 8.5349 2.53308C8.45055 2.40723 8.40905 2.23987 8.36755 2.03101C8.32604 1.82214 8.2417 1.65478 8.2002 1.48743C8.07435 1.1112 7.86549 0.817992 7.65664 0.650634C7.44779 0.566285 6.94573 0.44177 6.44368 0.398926C5.94163 0.398926 5.35523 0.357422 5.10487 0.357422C4.97903 0.357422 4.81167 0.357421 4.64432 0.398926H4.10077C2.76196 0.98535 1.79936 2.15686 1.08845 3.53723C0.419047 4.9176 0 6.46667 0 7.84705H0.00133881Z" fill="white"/>
</svg>
