<svg width="78" height="78" viewBox="0 0 78 78" fill="none" xmlns="http://www.w3.org/2000/svg">
<g filter="url(#filter0_d_6_57)">
<path d="M39 67C56.674 67 71 52.674 71 35C71 17.328 56.674 3 39 3C21.326 3 7 17.328 7 35C7 52.674 21.326 67 39 67Z" fill="white"/>
<g opacity="0.2">
<path d="M39.022 15.084L56.792 33.094L39.022 51.104L21.97 51.104L39.77 33.094L21.97 15.084L39.022 15.084Z" fill="black"/>
</g>
<path d="M41.022 17.084L58.792 35.094L41.022 53.104L23.97 53.104L41.77 35.094L23.97 17.084L41.022 17.084Z" fill="black"/>
</g>
<defs>
<filter id="filter0_d_6_57" x="0.6" y="0.6" width="76.8" height="76.8" filterUnits="userSpaceOnUse" color-interpolation-filters="sRGB">
<feFlood flood-opacity="0" result="BackgroundImageFix"/>
<feColorMatrix in="SourceAlpha" type="matrix" values="0 0 0 0 0 0 0 0 0 0 0 0 0 0 0 0 0 0 127 0" result="hardAlpha"/>
<feOffset dy="4"/>
<feGaussianBlur stdDeviation="3.2"/>
<feComposite in2="hardAlpha" operator="out"/>
<feColorMatrix type="matrix" values="0 0 0 0 0 0 0 0 0 0 0 0 0 0 0 0 0 0 0.46 0"/>
<feBlend mode="normal" in2="BackgroundImageFix" result="effect1_dropShadow_6_57"/>
<feBlend mode="normal" in="SourceGraphic" in2="effect1_dropShadow_6_57" result="shape"/>
</filter>
</defs>
</svg>
