<svg width="96" height="112" viewBox="0 0 96 112" fill="none" xmlns="http://www.w3.org/2000/svg">
<path d="M95.2565 103.268L92.8712 96.2547C88.3922 83.0625 76.2631 74.0719 62.4446 73.4819C61.2284 74.4269 59.9463 75.2389 58.6175 75.9489C56.6364 81.1508 49.9803 82.56 46.0804 78.5762C41.4668 78.1687 37.243 76.3461 33.5542 73.4822C19.7357 74.0702 7.60989 83.0608 3.12761 96.2549L0.746256 103.268C0.0578288 105.285 0.389381 107.508 1.63118 109.24C2.86898 110.973 4.87189 112 7.00212 112H88.9974C91.1271 112 93.1303 110.973 94.3683 109.24C95.6096 107.508 95.941 105.285 95.2565 103.268Z" fill="black"/>
<path d="M57.1283 68.1437C65.1502 62.5053 70.761 50.0536 70.761 38.0155C70.761 3.8035 25.2411 3.83984 25.2411 38.0155C25.2411 52.6462 33.5252 67.8652 44.3619 70.7382C45.4067 67.7777 48.2031 65.6367 51.517 65.6367C53.7454 65.6365 55.7336 66.614 57.1283 68.1437Z" fill="black"/>
<path d="M15.2532 52.2984C16.3817 56.7314 22.5323 55.5117 22.5323 51.4062C22.5323 34.951 23.3188 33.4145 21.1158 31.6285C26.1587 0.553615 69.5998 0.786686 74.887 31.632C72.6874 33.4236 73.4743 34.9529 73.4743 51.4062C73.4743 52.6933 74.166 53.7733 75.1599 54.4432C75.1599 67.2443 69.9674 66.4958 54.3533 70.6343C51.9394 68.0143 47.6278 69.7201 47.6278 73.2542C47.6278 77.6802 53.9711 78.7158 55.2019 74.2666C67.8079 70.9239 78.8884 69.8697 78.8884 57.2707V54.6852C79.8242 54.2007 80.4868 53.3418 80.7527 52.2984C92.9038 52.0508 92.9075 33.8405 80.7527 33.5929C80.5013 32.5988 79.8825 31.7868 79.0122 31.2915C79.3254 27.5629 78.5573 22.6616 76.4195 17.9298C61.5525 -12.7481 17.6416 -0.744691 16.9538 28.9866C16.8591 29.9935 16.9356 30.7072 16.9937 31.2915C16.1233 31.7868 15.5045 32.5988 15.2532 33.5929C10.1627 33.6912 6.05884 37.8332 6.05884 42.9458C6.05884 48.0581 10.1627 52.1999 15.2532 52.2984Z" fill="black"/>
</svg>
