<svg width="26" height="30" viewBox="0 0 26 30" fill="none" xmlns="http://www.w3.org/2000/svg">
<path d="M13 15C14.3845 15 15.7378 14.5895 16.889 13.8203C18.0401 13.0511 18.9373 11.9579 19.4672 10.6788C19.997 9.3997 20.1356 7.99224 19.8655 6.63437C19.5954 5.2765 18.9287 4.02922 17.9497 3.05026C16.9708 2.07129 15.7235 1.4046 14.3656 1.13451C13.0078 0.86441 11.6003 1.00303 10.3212 1.53285C9.04213 2.06266 7.94888 2.95987 7.17971 4.11101C6.41054 5.26216 6 6.61553 6 8C6 9.85652 6.7375 11.637 8.05025 12.9497C9.36301 14.2625 11.1435 15 13 15ZM13 3C13.9889 3 14.9556 3.29325 15.7779 3.84265C16.6001 4.39206 17.241 5.17296 17.6194 6.08659C17.9978 7.00022 18.0969 8.00555 17.9039 8.97545C17.711 9.94536 17.2348 10.8363 16.5355 11.5355C15.8363 12.2348 14.9454 12.711 13.9755 12.9039C13.0055 13.0969 12.0002 12.9978 11.0866 12.6194C10.173 12.241 9.39206 11.6001 8.84265 10.7779C8.29325 9.95561 8 8.98891 8 8C8 6.67392 8.52678 5.40215 9.46447 4.46447C10.4021 3.52679 11.6739 3 13 3Z" fill="white" stroke="white"/>
<path d="M14 17H12C9.08262 17 6.28473 18.1589 4.22183 20.2218C2.15893 22.2847 1 25.0826 1 28C1 28.2652 1.10536 28.5196 1.29289 28.7071C1.48043 28.8946 1.73478 29 2 29H24C24.2652 29 24.5196 28.8946 24.7071 28.7071C24.8946 28.5196 25 28.2652 25 28C25 25.0826 23.8411 22.2847 21.7782 20.2218C19.7153 18.1589 16.9174 17 14 17ZM3.06 27C3.3059 24.8006 4.35351 22.769 6.00268 21.2932C7.65185 19.8175 9.78694 19.0011 12 19H14C16.2131 19.0011 18.3482 19.8175 19.9973 21.2932C21.6465 22.769 22.6941 24.8006 22.94 27H3.06Z" fill="white" stroke="white"/>
</svg>
