<svg width="50" height="32" viewBox="0 0 50 32" fill="none" xmlns="http://www.w3.org/2000/svg">
<path d="M2.55226 0H47.2168C48.6264 0 49.769 1.14271 49.769 2.55226V29.351C49.769 30.7606 48.6264 31.9032 47.2168 31.9032H2.55226C1.14271 31.9032 0 30.7606 0 29.351V2.55226C0 1.14271 1.14271 0 2.55226 0Z" fill="#0E4595"/>
<path d="M18.708 22.251L20.8366 9.76024H24.2414L22.1112 22.251H18.708ZM34.4114 10.0295C33.737 9.77644 32.6799 9.50488 31.36 9.50488C27.9959 9.50488 25.6261 11.1989 25.606 13.627C25.5869 15.4218 27.2977 16.4231 28.5891 17.0206C29.9144 17.6328 30.3598 18.0232 30.3536 18.57C30.3452 19.4072 29.2953 19.7897 28.3167 19.7897C26.954 19.7897 26.2301 19.6004 25.1119 19.134L24.6732 18.9356L24.1953 21.7318C24.9906 22.0804 26.4611 22.3825 27.9879 22.3981C31.5668 22.3981 33.89 20.7235 33.9165 18.1306C33.9292 16.7097 33.0222 15.6284 31.0579 14.7369C29.8679 14.1591 29.1391 13.7735 29.1469 13.1884C29.1469 12.6692 29.7637 12.114 31.0966 12.114C32.2099 12.0968 33.0165 12.3395 33.6449 12.5925L33.9499 12.7367L34.4114 10.0295ZM43.1727 9.76004H40.5418C39.7268 9.76004 39.1169 9.98254 38.759 10.7959L33.7027 22.2428H37.2778C37.2778 22.2428 37.8623 20.7036 37.9945 20.3657C38.3853 20.3657 41.8583 20.3711 42.3549 20.3711C42.4568 20.8083 42.769 22.2428 42.769 22.2428H45.9283L43.1727 9.75966V9.76004ZM38.9986 17.8258C39.2801 17.1061 40.3551 14.3341 40.3551 14.3341C40.3349 14.3674 40.6345 13.611 40.8065 13.142L41.0365 14.219C41.0365 14.219 41.6885 17.2006 41.8247 17.8258H38.9986ZM15.8177 9.76004L12.4844 18.2782L12.1292 16.5471C11.5087 14.5517 9.57538 12.3898 7.41406 11.3075L10.4618 22.2311L14.0641 22.2271L19.4241 9.75992H15.8177" fill="white"/>
<path d="M9.37436 9.76002H3.88439L3.84094 10.0199C8.11202 11.0538 10.9381 13.5524 12.1115 16.5543L10.9177 10.8143C10.7116 10.0234 10.1139 9.78739 9.37449 9.75977" fill="#F2AE14"/>
</svg>
